# Blender v2.77 (sub 0) OBJ File: 'Rond.blend'
# www.blender.org
mtllib rond.mtl
o Cylinder
v -3.803612 21.918253 -1.371305
v -3.803612 21.918253 0.628695
v -2.389398 21.332466 -1.371305
v -2.389398 21.332466 0.628695
v -1.803612 19.918253 -1.371305
v -1.803612 19.918253 0.628695
v -2.389398 18.504040 -1.371306
v -2.389398 18.504040 0.628694
v -3.803612 17.918253 -1.371306
v -3.803612 17.918253 0.628694
v -5.217825 18.504040 -1.371306
v -5.217825 18.504040 0.628694
v -5.803612 19.918253 -1.371305
v -5.803612 19.918253 0.628695
v -5.217825 21.332466 -1.371305
v -5.217825 21.332466 0.628695
vt 0.9003 0.5624
vt 0.8591 0.5086
vt 0.9003 0.5086
vt 0.8590 0.5750
vt 0.8178 0.5212
vt 0.8590 0.5212
vt 0.8590 0.6290
vt 0.8178 0.5751
vt 0.8590 0.5751
vt 0.8590 0.4671
vt 0.8178 0.4133
vt 0.8590 0.4133
vt 0.8590 0.5211
vt 0.8178 0.4672
vt 0.8590 0.4672
vt 0.9130 0.4672
vt 0.8591 0.5084
vt 0.8591 0.4672
vt 0.0628 0.5014
vt 0.5047 0.0652
vt 0.4991 0.9433
vt 0.9003 0.6163
vt 0.8591 0.5625
vt 0.9003 0.5625
vt 0.9003 0.4671
vt 0.8591 0.4133
vt 0.9003 0.4133
vt 0.4612 0.7877
vt 0.0003 0.7877
vt 0.0003 0.5968
vt 0.8591 0.5624
vt 0.8178 0.5750
vt 0.8178 0.6290
vt 0.8178 0.4671
vt 0.8178 0.5211
vt 0.9130 0.5084
vt 0.9409 0.5070
vt 0.8103 0.8167
vt 0.1894 0.8127
vt 0.1934 0.1918
vt 0.8143 0.1958
vt 0.8591 0.6163
vt 0.8591 0.4671
vt 0.1353 0.4618
vt 0.3262 0.4618
vt 0.4612 0.5968
vt 0.3262 0.9227
vt 0.1353 0.9227
vn 0.3827 0.9239 0.0000
vn 0.9239 0.3827 0.0000
vn 0.9239 -0.3827 0.0000
vn 0.3827 -0.9239 0.0000
vn -0.3827 -0.9239 0.0000
vn -0.9239 -0.3827 0.0000
vn 0.0000 -0.0000 1.0000
vn -0.9239 0.3827 0.0000
vn -0.3827 0.9239 0.0000
vn 0.0000 0.0000 -1.0000
usemtl None
s off
f 2/1/1 3/2/1 1/3/1
f 4/4/2 5/5/2 3/6/2
f 6/7/3 7/8/3 5/9/3
f 8/10/4 9/11/4 7/12/4
f 10/13/5 11/14/5 9/15/5
f 12/16/6 13/17/6 11/18/6
f 14/19/7 10/20/7 2/21/7
f 14/22/8 15/23/8 13/24/8
f 16/25/9 1/26/9 15/27/9
f 7/28/10 13/29/10 15/30/10
f 2/1/1 4/31/1 3/2/1
f 4/4/2 6/32/2 5/5/2
f 6/7/3 8/33/3 7/8/3
f 8/10/4 10/34/4 9/11/4
f 10/13/5 12/35/5 11/14/5
f 12/16/6 14/36/6 13/17/6
f 6/37/7 4/38/7 2/21/7
f 2/21/7 16/39/7 14/19/7
f 14/19/7 12/40/7 10/20/7
f 10/20/7 8/41/7 6/37/7
f 6/37/7 2/21/7 10/20/7
f 14/22/8 16/42/8 15/23/8
f 16/25/9 2/43/9 1/26/9
f 15/30/10 1/44/10 7/28/10
f 3/45/10 5/46/10 7/28/10
f 7/28/10 9/47/10 11/48/10
f 11/48/10 13/29/10 7/28/10
f 1/44/10 3/45/10 7/28/10
o Plafond_Cube.009
v -22.000000 22.000000 38.000000
v 22.000000 22.000000 38.000000
v -22.000000 24.000002 38.000000
v 22.000000 24.000000 38.000000
v -22.000002 22.000000 -1.999998
v 21.999998 22.000000 -2.000002
v -22.000002 24.000002 -1.999998
v 21.999998 24.000000 -2.000002
vt 0.0000 0.0000
vt 1.0000 0.0000
vt 1.0000 1.0000
vt 0.0000 1.0000
vt 0.0000 0.0000
vt 1.0000 0.0000
vt 1.0000 1.0000
vt 0.0000 1.0000
vt 0.0000 0.0000
vt 1.0000 0.0000
vt 1.0000 1.0000
vt 0.0000 1.0000
vt 0.0000 0.0000
vt 1.0000 0.0000
vt 1.0000 1.0000
vt 0.0000 1.0000
vt 0.0000 0.0000
vt 1.0000 0.0000
vt 1.0000 1.0000
vt 0.0000 1.0000
vn 0.0000 0.0000 1.0000
vn 0.0000 1.0000 -0.0000
vn -0.0000 0.0000 -1.0000
vn 0.0000 -1.0000 -0.0000
vn -1.0000 0.0000 0.0000
vn 1.0000 0.0000 -0.0000
usemtl None_wall.jpg.001
s off
f 18/49/11 20/50/11 19/51/11 17/52/11
f 20/53/12 24/54/12 23/55/12 19/56/12
f 24/57/13 22/58/13 21/59/13 23/60/13
f 22/61/14 18/62/14 17/63/14 21/64/14
f 17/65/15 19/66/15 23/55/15 21/64/15
f 22/61/16 24/54/16 20/67/16 18/68/16
